<?xml version="1.0" encoding="UTF-8"?>
<!DOCTYPE svg PUBLIC "-//W3C//DTD SVG 1.1//EN" "http://www.w3.org/Graphics/SVG/1.1/DTD/svg11.dtd">
<svg xmlns="http://www.w3.org/2000/svg" version="1.1" width="639px" height="640px" style="shape-rendering:geometricPrecision; text-rendering:geometricPrecision; image-rendering:optimizeQuality; fill-rule:evenodd; clip-rule:evenodd" xmlns:xlink="http://www.w3.org/1999/xlink">
<g><path style="opacity:1" fill="#8eb5cc" d="M 291.5,-0.5 C 299.5,-0.5 307.5,-0.5 315.5,-0.5C 316.548,79.8328 317.548,160.166 318.5,240.5C 317.762,244.218 315.429,246.051 311.5,246C 307.341,249.247 303.008,252.247 298.5,255C 298.728,255.399 299.062,255.565 299.5,255.5C 294.578,261.252 291.578,267.919 290.5,275.5C 284.211,275.024 277.878,275.524 271.5,277C 260.087,284.028 249.087,291.528 238.5,299.5C 233.218,307.931 230.384,317.265 230,327.5C 229.681,336.512 229.181,345.512 228.5,354.5C 229.592,377.486 230.259,400.486 230.5,423.5C 203.982,413.715 177.316,404.215 150.5,395C 137.465,390.157 124.131,388.824 110.5,391C 100.767,397.855 91.1,404.689 81.5,411.5C 75.5386,416.756 72.2052,423.423 71.5,431.5C 64.4745,431.048 57.4745,431.882 50.5,434C 44.1281,438.845 37.7948,443.678 31.5,448.5C 34.6667,454.833 37.8333,461.167 41,467.5C 41.3404,463.442 42.0071,459.442 43,455.5C 43.414,455.043 43.914,454.709 44.5,454.5C 53.1515,456.408 61.4849,459.075 69.5,462.5C 69.2058,479.526 69.7058,496.526 71,513.5C 80.2993,525.068 90.2993,536.068 101,546.5C 101.219,522.167 101.053,497.834 100.5,473.5C 101.117,473.389 101.617,473.056 102,472.5C 130.116,484.317 158.949,494.15 188.5,502C 199.998,505.575 211.332,505.241 222.5,501C 231.347,494.97 240.014,488.804 248.5,482.5C 250.129,481.375 251.629,480.041 253,478.5C 255.452,473.35 257.285,468.016 258.5,462.5C 263.418,461.719 268.418,461.219 273.5,461C 284.993,456.395 295.659,449.895 305.5,441.5C 310.302,440.524 312.802,437.524 313,432.5C 313.995,431.934 314.828,431.267 315.5,430.5C 316.807,431.153 318.14,431.82 319.5,432.5C 320.329,437.467 320.829,442.467 321,447.5C 321.806,511.498 322.306,575.498 322.5,639.5C 312.167,639.5 301.833,639.5 291.5,639.5C 247.213,634.74 205.213,622.074 165.5,601.5C 146.692,590.033 128.692,577.366 111.5,563.5C 111.5,562.833 111.167,562.5 110.5,562.5C 107.562,560.066 104.729,557.399 102,554.5C 101.282,555.451 100.449,555.617 99.5,555C 97.8333,553.333 96.1667,551.667 94.5,550C 94.8333,549.667 95.1667,549.333 95.5,549C 91.3416,546.901 87.5083,543.734 84,539.5C 83.3828,538.551 83.5494,537.718 84.5,537C 81.6538,533.416 78.4871,530.916 75,529.5C 74.3828,528.551 74.5494,527.718 75.5,527C 73.8156,525.26 71.9823,524.094 70,523.5C 69.3828,522.551 69.5494,521.718 70.5,521C 68.8619,520.758 67.3619,519.925 66,518.5C 66.6171,516.905 66.2837,515.572 65,514.5C 63.8687,515.604 63.0354,515.271 62.5,513.5C 52.8389,501.08 43.8389,487.08 35.5,471.5C 36.5568,469.234 36.0568,467.234 34,465.5C 33.6667,465.833 33.3333,466.167 33,466.5C 31.8333,464.167 30.6667,461.833 29.5,459.5C 30.6613,457.776 30.4947,456.11 29,454.5C 28.6667,455.167 28.3333,455.833 28,456.5C 26.3635,453.394 24.8635,450.227 23.5,447C 24.8019,445.077 24.6352,443.243 23,441.5C 22.6667,442.167 22.3333,442.833 22,443.5C 20.5263,440.244 19.3597,436.911 18.5,433.5C 19.8333,432.5 19.8333,431.5 18.5,430.5C 18.6716,429.508 18.3382,428.842 17.5,428.5C 17.6495,427.448 17.4828,426.448 17,425.5C 16.3333,424.167 15.6667,424.167 15,425.5C 13.8551,422.568 13.0218,419.568 12.5,416.5C 13.8333,415.5 13.8333,414.5 12.5,413.5C 12.7678,411.901 12.4345,410.568 11.5,409.5C 11.7373,408.209 11.404,407.209 10.5,406.5C 10.7678,404.901 10.4345,403.568 9.5,402.5C 8.82826,398.812 7.99493,395.145 7,391.5C 5.99242,396.541 5.49242,396.208 5.5,390.5C 6.83333,389.167 6.83333,387.833 5.5,386.5C 5.78448,384.585 5.45115,382.919 4.5,381.5C 4.78448,379.585 4.45115,377.919 3.5,376.5C 3.79472,374.265 3.46138,372.265 2.5,370.5C 2.79472,368.265 2.46138,366.265 1.5,364.5C 1.8064,361.615 1.47307,358.948 0.5,356.5C 0.812775,352.958 0.479442,349.625 -0.5,346.5C -0.5,328.167 -0.5,309.833 -0.5,291.5C 0.681766,285.699 1.34843,279.699 1.5,273.5C 3.62834,266.041 4.46167,258.374 4,250.5C 4.66667,245.167 5.33333,245.167 6,250.5C 8.31887,243.93 9.31887,237.264 9,230.5C 9.66667,226.5 10.3333,226.5 11,230.5C 11.8333,228 12.6667,225.5 13.5,223C 12.291,219.314 12.791,215.814 15,212.5C 15.6667,215.167 16.3333,215.167 17,212.5C 16.6402,206.881 17.9735,201.548 21,196.5C 21.9836,198.795 22.8169,198.461 23.5,195.5C 22.2385,193.425 22.4052,191.425 24,189.5C 24.3333,190.167 24.6667,190.833 25,191.5C 25.8333,189.833 26.6667,188.167 27.5,186.5C 26.5721,185.232 26.4054,183.899 27,182.5C 29.6667,177.167 32.3333,171.833 35,166.5C 36,166.167 37,165.833 38,165.5C 37.1202,162.875 37.7869,160.542 40,158.5C 40.6667,159.833 41.3333,159.833 42,158.5C 42.4922,157.451 42.3256,156.451 41.5,155.5C 45,149.833 48.5,144.167 52,138.5C 53.2812,138.619 54.4479,138.119 55.5,137C 55.0426,136.586 54.7093,136.086 54.5,135.5C 55.5312,134.3 56.3645,132.966 57,131.5C 58.2812,131.619 59.4479,131.119 60.5,130C 59.5494,129.282 59.3828,128.449 60,127.5C 61.2812,127.619 62.4479,127.119 63.5,126C 62.5494,125.282 62.3828,124.449 63,123.5C 64.2812,123.619 65.4479,123.119 66.5,122C 65.5494,121.282 65.3828,120.449 66,119.5C 67.3619,118.075 68.8619,117.242 70.5,117C 69.5494,116.282 69.3828,115.449 70,114.5C 71.9823,113.906 73.8156,112.74 75.5,111C 74.5494,110.282 74.3828,109.449 75,108.5C 78.4871,107.084 81.6538,104.584 84.5,101C 83.5494,100.282 83.3828,99.4491 84,98.5C 88.5,94 93,89.5 97.5,85C 98.4491,84.3828 99.2825,84.5494 100,85.5C 102.729,82.6007 105.562,79.934 108.5,77.5C 109.167,77.5 109.5,77.1667 109.5,76.5C 113.39,73.7286 117.057,70.7286 120.5,67.5C 121.167,67.5 121.5,67.1667 121.5,66.5C 171.709,28.091 228.375,5.75762 291.5,-0.5 Z"/></g>
<g><path style="opacity:1" fill="#1c3a9c" d="M 315.5,-0.5 C 325.833,-0.5 336.167,-0.5 346.5,-0.5C 352.301,0.681766 358.301,1.34843 364.5,1.5C 388.977,5.62061 412.977,11.9539 436.5,20.5C 441.591,23.2039 446.924,25.5373 452.5,27.5C 457.311,30.0698 462.311,32.4032 467.5,34.5C 484.351,44.3462 500.684,55.0128 516.5,66.5C 516.5,67.1667 516.833,67.5 517.5,67.5C 520.943,70.7286 524.61,73.7286 528.5,76.5C 528.5,77.1667 528.833,77.5 529.5,77.5C 532.808,80.4715 536.141,83.4715 539.5,86.5C 539.5,87.1667 539.833,87.5 540.5,87.5C 540.5,88.1667 540.833,88.5 541.5,88.5C 541.5,89.1667 541.833,89.5 542.5,89.5C 542.5,90.1667 542.833,90.5 543.5,90.5C 543.5,91.1667 543.833,91.5 544.5,91.5C 545.167,92.1667 545.833,92.8333 546.5,93.5C 546.5,94.1667 546.833,94.5 547.5,94.5C 547.5,95.1667 547.833,95.5 548.5,95.5C 548.5,96.1667 548.833,96.5 549.5,96.5C 549.5,97.1667 549.833,97.5 550.5,97.5C 550.5,98.1667 550.833,98.5 551.5,98.5C 551.5,99.1667 551.833,99.5 552.5,99.5C 554.5,101.833 556.5,104.167 558.5,106.5C 558.833,107.5 559.5,108.167 560.5,108.5C 560.5,109.167 560.833,109.5 561.5,109.5C 561.5,110.167 561.833,110.5 562.5,110.5C 563.892,112.924 565.725,114.257 568,114.5C 567.383,116.095 567.716,117.428 569,118.5C 570.147,117.542 571.147,117.875 572,119.5C 571.383,121.095 571.716,122.428 573,123.5C 574.131,122.396 574.965,122.729 575.5,124.5C 575.291,125.086 574.957,125.586 574.5,126C 576.074,126.336 577.408,127.169 578.5,128.5C 578.291,129.086 577.957,129.586 577.5,130C 578.552,131.119 579.719,131.619 581,131.5C 581.635,132.966 582.469,134.3 583.5,135.5C 583.291,136.086 582.957,136.586 582.5,137C 583.552,138.119 584.719,138.619 586,138.5C 589.333,143.833 592.667,149.167 596,154.5C 596,155.833 596,157.167 596,158.5C 597,158.833 598,159.167 599,159.5C 600.495,161.11 600.661,162.776 599.5,164.5C 600.035,166.271 600.869,166.604 602,165.5C 602.464,166.094 602.631,166.761 602.5,167.5C 601.833,167.5 601.5,167.833 601.5,168.5C 601.5,169.167 601.833,169.5 602.5,169.5C 602.5,170.167 602.833,170.5 603.5,170.5C 603.5,170.833 603.5,171.167 603.5,171.5C 603.5,172.167 603.833,172.5 604.5,172.5C 604.5,172.833 604.5,173.167 604.5,173.5C 604.5,174.167 604.833,174.5 605.5,174.5C 605.5,174.833 605.5,175.167 605.5,175.5C 605.5,176.167 605.833,176.5 606.5,176.5C 606.5,176.833 606.5,177.167 606.5,177.5C 606.5,178.167 606.833,178.5 607.5,178.5C 607.833,178.5 608.167,178.5 608.5,178.5C 610.957,180.739 611.623,183.406 610.5,186.5C 611.333,188.167 612.167,189.833 613,191.5C 613.667,188.833 614.333,188.833 615,191.5C 615.595,192.899 615.428,194.232 614.5,195.5C 615.183,198.461 616.016,198.795 617,196.5C 620.026,201.548 621.36,206.881 621,212.5C 621.667,215.167 622.333,215.167 623,212.5C 625.209,215.814 625.709,219.314 624.5,223C 625.333,225.5 626.167,228 627,230.5C 627.667,226.5 628.333,226.5 629,230.5C 628.681,237.264 629.681,243.93 632,250.5C 632.333,249.167 632.667,247.833 633,246.5C 633.562,248.866 633.396,251.199 632.5,253.5C 634.367,262.94 636.034,272.273 637.5,281.5C 637.187,285.042 637.521,288.375 638.5,291.5C 638.5,309.833 638.5,328.167 638.5,346.5C 637.521,349.625 637.187,352.958 637.5,356.5C 636.527,358.948 636.194,361.615 636.5,364.5C 635.539,366.265 635.205,368.265 635.5,370.5C 634.539,372.265 634.205,374.265 634.5,376.5C 633.549,377.919 633.216,379.585 633.5,381.5C 632.549,382.919 632.216,384.585 632.5,386.5C 631.167,387.833 631.167,389.167 632.5,390.5C 632.58,393.781 631.913,396.781 630.5,399.5C 630.167,394.167 629.833,394.167 629.5,399.5C 628.596,400.209 628.263,401.209 628.5,402.5C 627.566,403.568 627.232,404.901 627.5,406.5C 626.596,407.209 626.263,408.209 626.5,409.5C 625.566,410.568 625.232,411.901 625.5,413.5C 624.167,414.5 624.167,415.5 625.5,416.5C 625.072,419.785 624.072,422.785 622.5,425.5C 622.167,424.167 621.833,424.167 621.5,425.5C 620.596,426.209 620.263,427.209 620.5,428.5C 619.662,428.842 619.328,429.508 619.5,430.5C 618.167,431.5 618.167,432.5 619.5,433.5C 618.737,437.137 617.403,440.47 615.5,443.5C 615.167,440.833 614.833,440.833 614.5,443.5C 613.167,444.167 613.167,444.833 614.5,445.5C 613.29,450.251 611.29,454.584 608.5,458.5C 608.167,455.833 607.833,455.833 607.5,458.5C 606.167,459.167 606.167,459.833 607.5,460.5C 607.008,462.819 606.008,464.819 604.5,466.5C 604.167,465.167 603.833,465.167 603.5,466.5C 602.662,466.842 602.328,467.508 602.5,468.5C 601.662,468.842 601.328,469.508 601.5,470.5C 600.833,470.5 600.5,470.833 600.5,471.5C 600.5,471.833 600.5,472.167 600.5,472.5C 599.833,472.5 599.5,472.833 599.5,473.5C 599.5,473.833 599.5,474.167 599.5,474.5C 598.833,474.5 598.5,474.833 598.5,475.5C 597.833,475.5 597.5,475.833 597.5,476.5C 597.5,476.833 597.5,477.167 597.5,477.5C 596.167,478.167 596.167,478.833 597.5,479.5C 591.492,490.859 584.492,501.526 576.5,511.5C 576.167,510.167 575.833,510.167 575.5,511.5C 574.167,511.833 574.167,512.167 575.5,512.5C 575.573,514.027 574.906,515.027 573.5,515.5C 573.167,514.167 572.833,514.167 572.5,515.5C 571.167,515.833 571.167,516.167 572.5,516.5C 572.262,518.404 571.262,519.738 569.5,520.5C 569.167,519.167 568.833,519.167 568.5,520.5C 567.167,520.833 567.167,521.167 568.5,521.5C 568.262,523.404 567.262,524.738 565.5,525.5C 565.167,524.167 564.833,524.167 564.5,525.5C 563.833,525.5 563.5,525.833 563.5,526.5C 562.833,526.5 562.5,526.833 562.5,527.5C 561.833,527.5 561.5,527.833 561.5,528.5C 560.833,528.5 560.5,528.833 560.5,529.5C 559.833,530.167 559.167,530.833 558.5,531.5C 558.5,531.833 558.5,532.167 558.5,532.5C 557.833,532.5 557.5,532.833 557.5,533.5C 556.833,533.5 556.5,533.833 556.5,534.5C 555.833,534.5 555.5,534.833 555.5,535.5C 554.833,535.5 554.5,535.833 554.5,536.5C 553.833,536.5 553.5,536.833 553.5,537.5C 552.833,537.5 552.5,537.833 552.5,538.5C 551.833,538.5 551.5,538.833 551.5,539.5C 550.833,539.5 550.5,539.833 550.5,540.5C 549.833,540.5 549.5,540.833 549.5,541.5C 548.449,542.222 547.782,543.222 547.5,544.5C 546.833,544.5 546.5,544.833 546.5,545.5C 545.833,545.5 545.5,545.833 545.5,546.5C 544.833,546.5 544.5,546.833 544.5,547.5C 543.167,547.833 543.167,548.167 544.5,548.5C 542.431,551.573 539.764,553.906 536.5,555.5C 536.167,554.167 535.833,554.167 535.5,555.5C 534.833,555.5 534.5,555.833 534.5,556.5C 533.833,556.5 533.5,556.833 533.5,557.5C 532.833,557.5 532.5,557.833 532.5,558.5C 531.833,558.5 531.5,558.833 531.5,559.5C 530.833,559.5 530.5,559.833 530.5,560.5C 529.833,560.5 529.5,560.833 529.5,561.5C 528.508,561.328 527.842,561.662 527.5,562.5C 526.833,562.5 526.5,562.833 526.5,563.5C 525.833,563.5 525.5,563.833 525.5,564.5C 524.833,564.5 524.5,564.833 524.5,565.5C 523.833,565.5 523.5,565.833 523.5,566.5C 522.833,566.5 522.5,566.833 522.5,567.5C 521.508,567.328 520.842,567.662 520.5,568.5C 519.833,568.5 519.5,568.833 519.5,569.5C 518.833,569.5 518.5,569.833 518.5,570.5C 517.833,570.5 517.5,570.833 517.5,571.5C 516.508,571.328 515.842,571.662 515.5,572.5C 514.833,572.5 514.5,572.833 514.5,573.5C 513.833,573.5 513.5,573.833 513.5,574.5C 512.508,574.328 511.842,574.662 511.5,575.5C 510.833,575.5 510.5,575.833 510.5,576.5C 509.833,576.5 509.5,576.833 509.5,577.5C 508.508,577.328 507.842,577.662 507.5,578.5C 506.833,578.5 506.5,578.833 506.5,579.5C 505.833,579.5 505.5,579.833 505.5,580.5C 504.508,580.328 503.842,580.662 503.5,581.5C 502.833,581.5 502.5,581.833 502.5,582.5C 501.508,582.328 500.842,582.662 500.5,583.5C 499.833,583.5 499.5,583.833 499.5,584.5C 498.833,584.5 498.5,584.833 498.5,585.5C 497.508,585.328 496.842,585.662 496.5,586.5C 495.833,586.5 495.5,586.833 495.5,587.5C 494.508,587.328 493.842,587.662 493.5,588.5C 492.833,588.5 492.5,588.833 492.5,589.5C 491.508,589.328 490.842,589.662 490.5,590.5C 489.508,590.328 488.842,590.662 488.5,591.5C 487.833,591.5 487.5,591.833 487.5,592.5C 486.508,592.328 485.842,592.662 485.5,593.5C 484.833,593.5 484.5,593.833 484.5,594.5C 483.508,594.328 482.842,594.662 482.5,595.5C 481.508,595.328 480.842,595.662 480.5,596.5C 479.833,596.5 479.5,596.833 479.5,597.5C 478.508,597.328 477.842,597.662 477.5,598.5C 476.508,598.328 475.842,598.662 475.5,599.5C 474.508,599.328 473.842,599.662 473.5,600.5C 472.508,600.328 471.842,600.662 471.5,601.5C 470.833,601.5 470.5,601.833 470.5,602.5C 469.508,602.328 468.842,602.662 468.5,603.5C 467.508,603.328 466.842,603.662 466.5,604.5C 465.508,604.328 464.842,604.662 464.5,605.5C 463.508,605.328 462.842,605.662 462.5,606.5C 461.508,606.328 460.842,606.662 460.5,607.5C 459.508,607.328 458.842,607.662 458.5,608.5C 457.508,608.328 456.842,608.662 456.5,609.5C 455.508,609.328 454.842,609.662 454.5,610.5C 453.508,610.328 452.842,610.662 452.5,611.5C 451.209,611.263 450.209,611.596 449.5,612.5C 448.508,612.328 447.842,612.662 447.5,613.5C 446.508,613.328 445.842,613.662 445.5,614.5C 444.508,614.328 443.842,614.662 443.5,615.5C 442.209,615.263 441.209,615.596 440.5,616.5C 439.508,616.328 438.842,616.662 438.5,617.5C 437.209,617.263 436.209,617.596 435.5,618.5C 434.508,618.328 433.842,618.662 433.5,619.5C 432.209,619.263 431.209,619.596 430.5,620.5C 429.209,620.263 428.209,620.596 427.5,621.5C 426.508,621.328 425.842,621.662 425.5,622.5C 424.209,622.263 423.209,622.596 422.5,623.5C 421.209,623.263 420.209,623.596 419.5,624.5C 418.209,624.263 417.209,624.596 416.5,625.5C 415.209,625.263 414.209,625.596 413.5,626.5C 411.901,626.232 410.568,626.566 409.5,627.5C 408.209,627.263 407.209,627.596 406.5,628.5C 404.901,628.232 403.568,628.566 402.5,629.5C 401.209,629.263 400.209,629.596 399.5,630.5C 397.901,630.232 396.568,630.566 395.5,631.5C 393.585,631.216 391.919,631.549 390.5,632.5C 388.901,632.232 387.568,632.566 386.5,633.5C 384.585,633.216 382.919,633.549 381.5,634.5C 379.585,634.216 377.919,634.549 376.5,635.5C 366.327,636.574 356.327,637.907 346.5,639.5C 338.5,639.5 330.5,639.5 322.5,639.5C 322.306,575.498 321.806,511.498 321,447.5C 320.829,442.467 320.329,437.467 319.5,432.5C 318.14,431.82 316.807,431.153 315.5,430.5C 318.165,419.675 319.665,408.675 320,397.5C 320.218,371.425 320.385,345.425 320.5,319.5C 343.094,327.421 365.761,335.254 388.5,343C 402.77,348.046 417.437,350.046 432.5,349C 434.246,348.529 435.913,347.862 437.5,347C 447.016,340.303 456.349,333.47 465.5,326.5C 468.091,325.746 469.924,324.079 471,321.5C 473.211,316.702 474.711,311.702 475.5,306.5C 481.876,305.956 488.21,304.956 494.5,303.5C 495.167,303.833 495.833,304.167 496.5,304.5C 505.077,298.723 513.41,292.723 521.5,286.5C 524.372,285.474 526.872,283.808 529,281.5C 532.738,274.62 535.071,267.287 536,259.5C 538.746,227.674 538.913,195.84 536.5,164C 536.743,163.098 537.077,162.265 537.5,161.5C 559.735,169.523 582.068,177.023 604.5,184C 597.717,170.259 590.05,157.093 581.5,144.5C 567.693,138.842 553.693,133.675 539.5,129C 538.058,128.623 537.058,127.79 536.5,126.5C 537.144,118.157 537.977,109.823 539,101.5C 539.725,100.941 540.558,100.608 541.5,100.5C 543.761,101.648 546.095,102.148 548.5,102C 543.956,97.1201 539.122,92.6201 534,88.5C 528.424,91.7049 522.924,95.0382 517.5,98.5C 517.709,99.086 518.043,99.586 518.5,100C 512.388,105.057 509.055,111.557 508.5,119.5C 501.891,119.023 495.224,119.523 488.5,121C 478.322,127.696 468.322,134.53 458.5,141.5C 453.909,145.001 451.076,149.667 450,155.5C 448.348,162.744 447.348,170.077 447,177.5C 446.337,205.02 446.837,232.52 448.5,260C 448.445,262.587 448.111,265.087 447.5,267.5C 425.485,259.439 403.485,251.272 381.5,243C 370.417,239.063 359.083,236.063 347.5,234C 341.833,233.333 336.167,233.333 330.5,234C 326.36,235.989 322.36,238.156 318.5,240.5C 317.548,160.166 316.548,79.8328 315.5,-0.5 Z"/></g>
<g><path style="opacity:0.01" fill="#66efff" d="M 364.5,1.5 C 366.288,0.377527 368.288,0.210861 370.5,1C 368.527,1.49546 366.527,1.66212 364.5,1.5 Z"/></g>
<g><path style="opacity:0.016" fill="#4cd6ff" d="M 261.5,2.5 C 262.946,1.38705 264.613,1.22039 266.5,2C 264.866,2.49351 263.199,2.66018 261.5,2.5 Z"/></g>
<g><path style="opacity:0.01" fill="#68ecf8" d="M 371.5,2.5 C 372.946,1.38705 374.613,1.22039 376.5,2C 374.866,2.49351 373.199,2.66018 371.5,2.5 Z"/></g>
<g><path style="opacity:0.012" fill="#00fffe" d="M 436.5,20.5 C 436.897,19.475 437.563,19.3083 438.5,20C 437.906,20.4643 437.239,20.631 436.5,20.5 Z"/></g>
<g><path style="opacity:0.012" fill="#91fffe" d="M 196.5,21.5 C 196.897,20.475 197.563,20.3083 198.5,21C 197.906,21.4643 197.239,21.631 196.5,21.5 Z"/></g>
<g><path style="opacity:0.004" fill="#cdfffe" d="M 439.5,21.5 C 439.897,20.475 440.563,20.3083 441.5,21C 440.906,21.4643 440.239,21.631 439.5,21.5 Z"/></g>
<g><path style="opacity:0.012" fill="#91fffe" d="M 452.5,27.5 C 452.897,26.475 453.563,26.3083 454.5,27C 453.906,27.4643 453.239,27.631 452.5,27.5 Z"/></g>
<g><path style="opacity:0.012" fill="#00fffe" d="M 467.5,33.5 C 468.833,34.1667 468.833,34.1667 467.5,33.5 Z"/></g>
<g><path style="opacity:0.008" fill="#6ed1df" d="M 121.5,66.5 C 120.833,66.5 120.5,66.8333 120.5,67.5C 118.025,67.2533 118.025,66.5866 120.5,65.5C 121.107,65.6236 121.44,65.9569 121.5,66.5 Z"/></g>
<g><path style="opacity:0.004" fill="#8dbab9" d="M 516.5,66.5 C 517.497,65.2875 518.497,65.4542 519.5,67C 518.906,67.4643 518.239,67.631 517.5,67.5C 516.833,67.5 516.5,67.1667 516.5,66.5 Z"/></g>
<g><path style="opacity:0.008" fill="#39d8ff" d="M 109.5,76.5 C 108.833,76.5 108.5,76.8333 108.5,77.5C 106.025,77.2533 106.025,76.5866 108.5,75.5C 109.107,75.6236 109.44,75.9569 109.5,76.5 Z"/></g>
<g><path style="opacity:0.008" fill="#4ac7ff" d="M 528.5,76.5 C 529.497,75.2875 530.497,75.4542 531.5,77C 530.906,77.4643 530.239,77.631 529.5,77.5C 528.833,77.5 528.5,77.1667 528.5,76.5 Z"/></g>
<g><path style="opacity:0.008" fill="#8accdb" d="M 539.5,86.5 C 539.897,85.475 540.563,85.3083 541.5,86C 545.333,89.8333 549.167,93.6667 553,97.5C 553.692,98.4368 553.525,99.1034 552.5,99.5C 551.833,99.5 551.5,99.1667 551.5,98.5C 550.833,98.5 550.5,98.1667 550.5,97.5C 549.833,97.5 549.5,97.1667 549.5,96.5C 548.833,96.5 548.5,96.1667 548.5,95.5C 547.833,95.5 547.5,95.1667 547.5,94.5C 546.833,94.5 546.5,94.1667 546.5,93.5C 545.833,92.8333 545.167,92.1667 544.5,91.5C 543.833,91.5 543.5,91.1667 543.5,90.5C 542.833,90.5 542.5,90.1667 542.5,89.5C 541.833,89.5 541.5,89.1667 541.5,88.5C 540.833,88.5 540.5,88.1667 540.5,87.5C 539.833,87.5 539.5,87.1667 539.5,86.5 Z"/></g>
<g><path style="opacity:1" fill="#e2e1e1" d="M 536.5,126.5 C 527.153,124.163 517.819,121.83 508.5,119.5C 509.055,111.557 512.388,105.057 518.5,100C 518.043,99.586 517.709,99.086 517.5,98.5C 522.924,95.0382 528.424,91.7049 534,88.5C 539.122,92.6201 543.956,97.1201 548.5,102C 546.095,102.148 543.761,101.648 541.5,100.5C 540.558,100.608 539.725,100.941 539,101.5C 537.977,109.823 537.144,118.157 536.5,126.5 Z"/></g>
<g><path style="opacity:0.004" fill="#9dd6dd" d="M 562.5,110.5 C 561.833,110.5 561.5,110.167 561.5,109.5C 560.833,109.5 560.5,109.167 560.5,108.5C 559.5,108.167 558.833,107.5 558.5,106.5C 560.308,105.683 561.808,106.35 563,108.5C 563.692,109.437 563.525,110.103 562.5,110.5 Z"/></g>
<g><path style="opacity:1" fill="#fefefe" d="M 508.5,119.5 C 517.819,121.83 527.153,124.163 536.5,126.5C 537.058,127.79 538.058,128.623 539.5,129C 553.693,133.675 567.693,138.842 581.5,144.5C 590.05,157.093 597.717,170.259 604.5,184C 582.068,177.023 559.735,169.523 537.5,161.5C 526.833,157.833 516.167,154.167 505.5,150.5C 497.78,147.231 489.78,144.564 481.5,142.5C 480.817,142.863 480.15,143.196 479.5,143.5C 472.635,141.92 465.635,141.253 458.5,141.5C 468.322,134.53 478.322,127.696 488.5,121C 495.224,119.523 501.891,119.023 508.5,119.5 Z"/></g>
<g><path style="opacity:1" fill="#dcdbdb" d="M 458.5,141.5 C 465.635,141.253 472.635,141.92 479.5,143.5C 477.957,159.438 477.291,175.438 477.5,191.5C 478.042,220.165 478.376,248.832 478.5,277.5C 468.033,274.566 457.699,271.233 447.5,267.5C 448.111,265.087 448.445,262.587 448.5,260C 446.837,232.52 446.337,205.02 447,177.5C 447.348,170.077 448.348,162.744 450,155.5C 451.076,149.667 453.909,145.001 458.5,141.5 Z"/></g>
<g><path style="opacity:1" fill="#1f3c9c" d="M 505.5,150.5 C 505.945,180.504 506.611,210.504 507.5,240.5C 507.862,255.317 506.862,269.984 504.5,284.5C 495.261,283.693 486.595,281.36 478.5,277.5C 478.376,248.832 478.042,220.165 477.5,191.5C 477.291,175.438 477.957,159.438 479.5,143.5C 480.15,143.196 480.817,142.863 481.5,142.5C 489.78,144.564 497.78,147.231 505.5,150.5 Z"/></g>
<g><path style="opacity:1" fill="#dcdbdb" d="M 505.5,150.5 C 516.167,154.167 526.833,157.833 537.5,161.5C 537.077,162.265 536.743,163.098 536.5,164C 538.913,195.84 538.746,227.674 536,259.5C 535.071,267.287 532.738,274.62 529,281.5C 526.872,283.808 524.372,285.474 521.5,286.5C 521.611,285.883 521.944,285.383 522.5,285C 516.509,284.501 510.509,284.334 504.5,284.5C 506.862,269.984 507.862,255.317 507.5,240.5C 506.611,210.504 505.945,180.504 505.5,150.5 Z"/></g>
<g><path style="opacity:0.004" fill="#a7e4f3" d="M 602.5,167.5 C 605.258,170.678 607.258,174.345 608.5,178.5C 608.167,178.5 607.833,178.5 607.5,178.5C 606.833,178.5 606.5,178.167 606.5,177.5C 606.5,177.167 606.5,176.833 606.5,176.5C 605.833,176.5 605.5,176.167 605.5,175.5C 605.5,175.167 605.5,174.833 605.5,174.5C 604.833,174.5 604.5,174.167 604.5,173.5C 604.5,173.167 604.5,172.833 604.5,172.5C 603.833,172.5 603.5,172.167 603.5,171.5C 603.5,171.167 603.5,170.833 603.5,170.5C 602.833,170.5 602.5,170.167 602.5,169.5C 601.833,169.5 601.5,169.167 601.5,168.5C 602.167,168.5 602.5,168.167 602.5,167.5 Z"/></g>
<g><path style="opacity:1" fill="#fefefe" d="M 447.5,267.5 C 457.699,271.233 468.033,274.566 478.5,277.5C 486.595,281.36 495.261,283.693 504.5,284.5C 510.509,284.334 516.509,284.501 522.5,285C 521.944,285.383 521.611,285.883 521.5,286.5C 513.41,292.723 505.077,298.723 496.5,304.5C 495.833,304.167 495.167,303.833 494.5,303.5C 488.21,304.956 481.876,305.956 475.5,306.5C 466.422,304.821 457.422,302.821 448.5,300.5C 420.861,290.671 393.194,280.505 365.5,270C 351.429,265.087 337.262,260.587 323,256.5C 322.617,257.056 322.117,257.389 321.5,257.5C 314.31,255.819 306.977,255.153 299.5,255.5C 299.062,255.565 298.728,255.399 298.5,255C 303.008,252.247 307.341,249.247 311.5,246C 315.429,246.051 317.762,244.218 318.5,240.5C 322.36,238.156 326.36,235.989 330.5,234C 336.167,233.333 341.833,233.333 347.5,234C 359.083,236.063 370.417,239.063 381.5,243C 403.485,251.272 425.485,259.439 447.5,267.5 Z"/></g>
<g><path style="opacity:1" fill="#dcdbdb" d="M 299.5,255.5 C 306.977,255.153 314.31,255.819 321.5,257.5C 320.076,266.096 319.41,274.763 319.5,283.5C 309.862,280.343 300.195,277.676 290.5,275.5C 291.578,267.919 294.578,261.252 299.5,255.5 Z"/></g>
<g><path style="opacity:1" fill="#213c9d" d="M 448.5,300.5 C 448.287,309.303 447.287,317.969 445.5,326.5C 429.728,324.078 414.395,319.911 399.5,314C 372.81,303.717 346.144,293.551 319.5,283.5C 319.41,274.763 320.076,266.096 321.5,257.5C 322.117,257.389 322.617,257.056 323,256.5C 337.262,260.587 351.429,265.087 365.5,270C 393.194,280.505 420.861,290.671 448.5,300.5 Z"/></g>
<g><path style="opacity:0.016" fill="#81c8ea" d="M 1.5,273.5 C 1.16667,273.5 0.833333,273.5 0.5,273.5C 0.833333,264.167 1.16667,264.167 1.5,273.5 Z"/></g>
<g><path style="opacity:0.008" fill="#4aa8b7" d="M -0.5,273.5 C -0.166667,273.5 0.166667,273.5 0.5,273.5C 0.801552,276.059 0.468218,278.393 -0.5,280.5C -0.5,278.167 -0.5,275.833 -0.5,273.5 Z"/></g>
<g><path style="opacity:1" fill="#fefefe" d="M 290.5,275.5 C 300.195,277.676 309.862,280.343 319.5,283.5C 346.144,293.551 372.81,303.717 399.5,314C 414.395,319.911 429.728,324.078 445.5,326.5C 452.167,327.833 458.833,327.833 465.5,326.5C 456.349,333.47 447.016,340.303 437.5,347C 435.913,347.862 434.246,348.529 432.5,349C 417.437,350.046 402.77,348.046 388.5,343C 365.761,335.254 343.094,327.421 320.5,319.5C 309.828,315.832 299.162,312.165 288.5,308.5C 280.206,304.848 271.539,302.181 262.5,300.5C 254.517,299.834 246.517,299.501 238.5,299.5C 249.087,291.528 260.087,284.028 271.5,277C 277.878,275.524 284.211,275.024 290.5,275.5 Z"/></g>
<g><path style="opacity:0.016" fill="#1f6798" d="M 638.5,273.5 C 638.5,276.167 638.5,278.833 638.5,281.5C 638.167,281.5 637.833,281.5 637.5,281.5C 637.194,278.615 637.527,275.948 638.5,273.5 Z"/></g>
<g><path style="opacity:1" fill="#dcdbdb" d="M 238.5,299.5 C 246.517,299.501 254.517,299.834 262.5,300.5C 260.13,314.506 259.13,328.672 259.5,343C 259.955,368.007 260.621,393.007 261.5,418C 261.225,423.176 260.892,428.343 260.5,433.5C 250.286,430.762 240.286,427.429 230.5,423.5C 230.259,400.486 229.592,377.486 228.5,354.5C 229.181,345.512 229.681,336.512 230,327.5C 230.384,317.265 233.218,307.931 238.5,299.5 Z"/></g>
<g><path style="opacity:1" fill="#8fb5cc" d="M 262.5,300.5 C 271.539,302.181 280.206,304.848 288.5,308.5C 289.109,337.333 289.776,366.167 290.5,395C 290.333,404.167 290.167,413.333 290,422.5C 289.733,428.627 288.9,434.627 287.5,440.5C 279.697,439.8 272.031,438.3 264.5,436C 262.68,435.8 261.347,434.966 260.5,433.5C 260.892,428.343 261.225,423.176 261.5,418C 260.621,393.007 259.955,368.007 259.5,343C 259.13,328.672 260.13,314.506 262.5,300.5 Z"/></g>
<g><path style="opacity:1" fill="#dddbdb" d="M 448.5,300.5 C 457.422,302.821 466.422,304.821 475.5,306.5C 474.711,311.702 473.211,316.702 471,321.5C 469.924,324.079 468.091,325.746 465.5,326.5C 458.833,327.833 452.167,327.833 445.5,326.5C 447.287,317.969 448.287,309.303 448.5,300.5 Z"/></g>
<g><path style="opacity:1" fill="#dcdbdb" d="M 288.5,308.5 C 299.162,312.165 309.828,315.832 320.5,319.5C 320.385,345.425 320.218,371.425 320,397.5C 319.665,408.675 318.165,419.675 315.5,430.5C 314.828,431.267 313.995,431.934 313,432.5C 312.802,437.524 310.302,440.524 305.5,441.5C 299.69,440.51 293.69,440.177 287.5,440.5C 288.9,434.627 289.733,428.627 290,422.5C 290.167,413.333 290.333,404.167 290.5,395C 289.776,366.167 289.109,337.333 288.5,308.5 Z"/></g>
<g><path style="opacity:0.016" fill="#51acba" d="M -0.5,356.5 C -0.166667,356.5 0.166667,356.5 0.5,356.5C 0.5,359.167 0.5,361.833 0.5,364.5C 0.166667,364.5 -0.166667,364.5 -0.5,364.5C -0.5,361.833 -0.5,359.167 -0.5,356.5 Z"/></g>
<g><path style="opacity:0.016" fill="#3585b5" d="M 637.5,356.5 C 637.833,356.5 638.167,356.5 638.5,356.5C 638.5,358.833 638.5,361.167 638.5,363.5C 637.532,361.393 637.198,359.059 637.5,356.5 Z"/></g>
<g><path style="opacity:0.01" fill="#41caff" d="M 0.5,364.5 C 0.833333,364.5 1.16667,364.5 1.5,364.5C 1.5,366.5 1.5,368.5 1.5,370.5C 0.538616,368.735 0.205283,366.735 0.5,364.5 Z"/></g>
<g><path style="opacity:0.01" fill="#40c5fa" d="M 636.5,364.5 C 637.833,366.5 637.833,368.5 636.5,370.5C 636.5,368.5 636.5,366.5 636.5,364.5 Z"/></g>
<g><path style="opacity:0.01" fill="#41caff" d="M 1.5,370.5 C 1.83333,370.5 2.16667,370.5 2.5,370.5C 2.5,372.5 2.5,374.5 2.5,376.5C 1.53862,374.735 1.20528,372.735 1.5,370.5 Z"/></g>
<g><path style="opacity:0.01" fill="#22c0cf" d="M 635.5,370.5 C 635.833,370.5 636.167,370.5 636.5,370.5C 636.795,372.735 636.461,374.735 635.5,376.5C 635.5,374.5 635.5,372.5 635.5,370.5 Z"/></g>
<g><path style="opacity:0.016" fill="#65deff" d="M 2.5,376.5 C 2.83333,376.5 3.16667,376.5 3.5,376.5C 3.5,378.167 3.5,379.833 3.5,381.5C 2.54885,380.081 2.21552,378.415 2.5,376.5 Z"/></g>
<g><path style="opacity:0.01" fill="#44cbff" d="M 634.5,376.5 C 634.833,376.5 635.167,376.5 635.5,376.5C 635.784,378.415 635.451,380.081 634.5,381.5C 634.5,379.833 634.5,378.167 634.5,376.5 Z"/></g>
<g><path style="opacity:0.016" fill="#3bbaff" d="M 3.5,381.5 C 3.83333,381.5 4.16667,381.5 4.5,381.5C 4.5,383.167 4.5,384.833 4.5,386.5C 3.54885,385.081 3.21552,383.415 3.5,381.5 Z"/></g>
<g><path style="opacity:0.008" fill="#41c0f4" d="M 633.5,381.5 C 633.833,381.5 634.167,381.5 634.5,381.5C 634.784,383.415 634.451,385.081 633.5,386.5C 633.5,384.833 633.5,383.167 633.5,381.5 Z"/></g>
<g><path style="opacity:0.016" fill="#6fe5ff" d="M 4.5,386.5 C 4.83333,386.5 5.16667,386.5 5.5,386.5C 5.5,387.833 5.5,389.167 5.5,390.5C 4.56552,389.432 4.23219,388.099 4.5,386.5 Z"/></g>
<g><path style="opacity:0.016" fill="#6fe5ff" d="M 632.5,386.5 C 632.833,386.5 633.167,386.5 633.5,386.5C 633.768,388.099 633.434,389.432 632.5,390.5C 632.5,389.167 632.5,387.833 632.5,386.5 Z"/></g>
<g><path style="opacity:1" fill="#fefefe" d="M 230.5,423.5 C 240.286,427.429 250.286,430.762 260.5,433.5C 261.347,434.966 262.68,435.8 264.5,436C 272.031,438.3 279.697,439.8 287.5,440.5C 293.69,440.177 299.69,440.51 305.5,441.5C 295.659,449.895 284.993,456.395 273.5,461C 268.418,461.219 263.418,461.719 258.5,462.5C 249.258,461.461 240.258,459.461 231.5,456.5C 203.382,446.848 175.382,436.681 147.5,426C 133.314,420.993 118.981,416.493 104.5,412.5C 103.817,412.863 103.15,413.196 102.5,413.5C 95.6538,411.775 88.6538,411.109 81.5,411.5C 91.1,404.689 100.767,397.855 110.5,391C 124.131,388.824 137.465,390.157 150.5,395C 177.316,404.215 203.982,413.715 230.5,423.5 Z"/></g>
<g><path style="opacity:0.016" fill="#71cfde" d="M 629.5,399.5 C 629.833,399.5 630.167,399.5 630.5,399.5C 630.737,400.791 630.404,401.791 629.5,402.5C 629.5,401.5 629.5,400.5 629.5,399.5 Z"/></g>
<g><path style="opacity:0.016" fill="#9ae5ff" d="M 9.5,402.5 C 9.5,403.833 9.5,405.167 9.5,406.5C 8.16667,405.167 8.16667,403.833 9.5,402.5 Z"/></g>
<g><path style="opacity:0.016" fill="#9ae5ff" d="M 628.5,402.5 C 628.833,402.5 629.167,402.5 629.5,402.5C 629.768,404.099 629.434,405.432 628.5,406.5C 628.5,405.167 628.5,403.833 628.5,402.5 Z"/></g>
<g><path style="opacity:0.016" fill="#14deff" d="M 9.5,406.5 C 9.83333,406.5 10.1667,406.5 10.5,406.5C 10.5,407.5 10.5,408.5 10.5,409.5C 9.59603,408.791 9.26269,407.791 9.5,406.5 Z"/></g>
<g><path style="opacity:0.016" fill="#14deff" d="M 627.5,406.5 C 627.833,406.5 628.167,406.5 628.5,406.5C 628.737,407.791 628.404,408.791 627.5,409.5C 627.5,408.5 627.5,407.5 627.5,406.5 Z"/></g>
<g><path style="opacity:0.016" fill="#79b9ff" d="M 10.5,409.5 C 10.8333,409.5 11.1667,409.5 11.5,409.5C 11.5,410.833 11.5,412.167 11.5,413.5C 10.5655,412.432 10.2322,411.099 10.5,409.5 Z"/></g>
<g><path style="opacity:0.016" fill="#73a8ff" d="M 626.5,409.5 C 626.833,409.5 627.167,409.5 627.5,409.5C 627.768,411.099 627.434,412.432 626.5,413.5C 626.5,412.167 626.5,410.833 626.5,409.5 Z"/></g>
<g><path style="opacity:1" fill="#dcdbdb" d="M 81.5,411.5 C 88.6538,411.109 95.6538,411.775 102.5,413.5C 100.952,421.712 100.285,430.046 100.5,438.5C 90.8561,436.006 81.1895,433.672 71.5,431.5C 72.2052,423.423 75.5386,416.756 81.5,411.5 Z"/></g>
<g><path style="opacity:1" fill="#90b5cc" d="M 231.5,456.5 C 230.69,465.148 229.69,473.814 228.5,482.5C 223.243,482.682 217.909,481.849 212.5,480C 201.105,476.535 189.771,472.868 178.5,469C 152.249,459.09 126.249,448.924 100.5,438.5C 100.285,430.046 100.952,421.712 102.5,413.5C 103.15,413.196 103.817,412.863 104.5,412.5C 118.981,416.493 133.314,420.993 147.5,426C 175.382,436.681 203.382,446.848 231.5,456.5 Z"/></g>
<g><path style="opacity:0.012" fill="#7cefff" d="M 11.5,413.5 C 11.8333,413.5 12.1667,413.5 12.5,413.5C 12.5,414.5 12.5,415.5 12.5,416.5C 11.596,415.791 11.2627,414.791 11.5,413.5 Z"/></g>
<g><path style="opacity:0.012" fill="#7cefff" d="M 625.5,413.5 C 625.833,413.5 626.167,413.5 626.5,413.5C 626.737,414.791 626.404,415.791 625.5,416.5C 625.5,415.5 625.5,414.5 625.5,413.5 Z"/></g>
<g><path style="opacity:0.012" fill="#25a9b8" d="M 621.5,425.5 C 621.833,425.5 622.167,425.5 622.5,425.5C 622.737,426.791 622.404,427.791 621.5,428.5C 621.5,427.5 621.5,426.5 621.5,425.5 Z"/></g>
<g><path style="opacity:0.008" fill="#67e9ff" d="M 17.5,428.5 C 17.5,429.167 17.5,429.833 17.5,430.5C 16.1667,429.833 16.1667,429.167 17.5,428.5 Z"/></g>
<g><path style="opacity:0.008" fill="#13e9ff" d="M 620.5,428.5 C 620.833,428.5 621.167,428.5 621.5,428.5C 621.672,429.492 621.338,430.158 620.5,430.5C 620.5,429.833 620.5,429.167 620.5,428.5 Z"/></g>
<g><path style="opacity:0.016" fill="#7adeff" d="M 17.5,430.5 C 17.8333,430.5 18.1667,430.5 18.5,430.5C 18.5,431.5 18.5,432.5 18.5,433.5C 17.596,432.791 17.2627,431.791 17.5,430.5 Z"/></g>
<g><path style="opacity:1" fill="#fefefe" d="M 71.5,431.5 C 81.1895,433.672 90.8561,436.006 100.5,438.5C 126.249,448.924 152.249,459.09 178.5,469C 189.771,472.868 201.105,476.535 212.5,480C 217.909,481.849 223.243,482.682 228.5,482.5C 235.123,483.755 241.79,483.755 248.5,482.5C 240.014,488.804 231.347,494.97 222.5,501C 211.332,505.241 199.998,505.575 188.5,502C 158.949,494.15 130.116,484.317 102,472.5C 101.617,473.056 101.117,473.389 100.5,473.5C 90.2473,469.638 79.9139,465.971 69.5,462.5C 61.4849,459.075 53.1515,456.408 44.5,454.5C 43.914,454.709 43.414,455.043 43,455.5C 42.0071,459.442 41.3404,463.442 41,467.5C 37.8333,461.167 34.6667,454.833 31.5,448.5C 37.7948,443.678 44.1281,438.845 50.5,434C 57.4745,431.882 64.4745,431.048 71.5,431.5 Z"/></g>
<g><path style="opacity:0.016" fill="#7adeff" d="M 619.5,430.5 C 619.833,430.5 620.167,430.5 620.5,430.5C 620.737,431.791 620.404,432.791 619.5,433.5C 619.5,432.5 619.5,431.5 619.5,430.5 Z"/></g>
<g><path style="opacity:0.01" fill="#00fffe" d="M 614.5,443.5 C 614.833,443.5 615.167,443.5 615.5,443.5C 615.672,444.492 615.338,445.158 614.5,445.5C 614.5,444.833 614.5,444.167 614.5,443.5 Z"/></g>
<g><path style="opacity:1" fill="#dcdbdb" d="M 231.5,456.5 C 240.258,459.461 249.258,461.461 258.5,462.5C 257.285,468.016 255.452,473.35 253,478.5C 251.629,480.041 250.129,481.375 248.5,482.5C 241.79,483.755 235.123,483.755 228.5,482.5C 229.69,473.814 230.69,465.148 231.5,456.5 Z"/></g>
<g><path style="opacity:0.01" fill="#00fffe" d="M 607.5,458.5 C 607.833,458.5 608.167,458.5 608.5,458.5C 608.672,459.492 608.338,460.158 607.5,460.5C 607.5,459.833 607.5,459.167 607.5,458.5 Z"/></g>
<g><path style="opacity:1" fill="#dddbdb" d="M 69.5,462.5 C 79.9139,465.971 90.2473,469.638 100.5,473.5C 101.053,497.834 101.219,522.167 101,546.5C 90.2993,536.068 80.2993,525.068 71,513.5C 69.7058,496.526 69.2058,479.526 69.5,462.5 Z"/></g>
<g><path style="opacity:0.01" fill="#00fffe" d="M 603.5,466.5 C 603.833,466.5 604.167,466.5 604.5,466.5C 604.672,467.492 604.338,468.158 603.5,468.5C 603.5,467.833 603.5,467.167 603.5,466.5 Z"/></g>
<g><path style="opacity:0.01" fill="#00fffe" d="M 602.5,468.5 C 602.833,468.5 603.167,468.5 603.5,468.5C 603.672,469.492 603.338,470.158 602.5,470.5C 602.5,469.833 602.5,469.167 602.5,468.5 Z"/></g>
<g><path style="opacity:0.01" fill="#4fdfea" d="M 601.5,470.5 C 601.833,470.5 602.167,470.5 602.5,470.5C 601.921,473.331 600.588,475.664 598.5,477.5C 598.5,476.833 598.167,476.5 597.5,476.5C 597.5,475.833 597.833,475.5 598.5,475.5C 599.167,475.5 599.5,475.167 599.5,474.5C 599.5,474.167 599.5,473.833 599.5,473.5C 600.167,473.5 600.5,473.167 600.5,472.5C 600.5,472.167 600.5,471.833 600.5,471.5C 601.167,471.5 601.5,471.167 601.5,470.5 Z"/></g>
<g><path style="opacity:0.012" fill="#1cc5ff" d="M 597.5,477.5 C 597.833,477.5 598.167,477.5 598.5,477.5C 598.672,478.492 598.338,479.158 597.5,479.5C 597.5,478.833 597.5,478.167 597.5,477.5 Z"/></g>
<g><path style="opacity:0.012" fill="#00fffe" d="M 575.5,511.5 C 575.833,511.5 576.167,511.5 576.5,511.5C 576.315,512.17 575.981,512.17 575.5,511.5 Z"/></g>
<g><path style="opacity:0.012" fill="#00fffe" d="M 572.5,515.5 C 572.833,515.5 573.167,515.5 573.5,515.5C 573.315,516.17 572.981,516.17 572.5,515.5 Z"/></g>
<g><path style="opacity:0.012" fill="#00fffe" d="M 568.5,520.5 C 568.833,520.5 569.167,520.5 569.5,520.5C 569.315,521.17 568.981,521.17 568.5,520.5 Z"/></g>
<g><path style="opacity:0.012" fill="#00a9ff" d="M 564.5,525.5 C 564.833,525.5 565.167,525.5 565.5,525.5C 565.315,526.17 564.981,526.17 564.5,525.5 Z"/></g>
<g><path style="opacity:0.016" fill="#00bfbe" d="M 563.5,526.5 C 563.833,526.5 564.167,526.5 564.5,526.5C 564.315,527.17 563.981,527.17 563.5,526.5 Z"/></g>
<g><path style="opacity:0.004" fill="#8bd2c3" d="M 562.5,527.5 C 562.833,527.5 563.167,527.5 563.5,527.5C 562.92,529.749 561.587,531.415 559.5,532.5C 559.5,531.833 559.167,531.5 558.5,531.5C 559.167,530.833 559.833,530.167 560.5,529.5C 561.167,529.5 561.5,529.167 561.5,528.5C 562.167,528.5 562.5,528.167 562.5,527.5 Z"/></g>
<g><path style="opacity:0.012" fill="#00fffe" d="M 558.5,532.5 C 558.833,532.5 559.167,532.5 559.5,532.5C 559.315,533.17 558.981,533.17 558.5,532.5 Z"/></g>
<g><path style="opacity:0.016" fill="#00bfff" d="M 557.5,533.5 C 557.833,533.5 558.167,533.5 558.5,533.5C 558.315,534.17 557.981,534.17 557.5,533.5 Z"/></g>
<g><path style="opacity:0.016" fill="#00bfff" d="M 556.5,534.5 C 556.833,534.5 557.167,534.5 557.5,534.5C 557.315,535.17 556.981,535.17 556.5,534.5 Z"/></g>
<g><path style="opacity:0.016" fill="#40fffe" d="M 555.5,535.5 C 555.833,535.5 556.167,535.5 556.5,535.5C 556.315,536.17 555.981,536.17 555.5,535.5 Z"/></g>
<g><path style="opacity:0.016" fill="#00bfff" d="M 554.5,536.5 C 554.833,536.5 555.167,536.5 555.5,536.5C 555.315,537.17 554.981,537.17 554.5,536.5 Z"/></g>
<g><path style="opacity:0.004" fill="#8fd9d6" d="M 553.5,537.5 C 553.833,537.5 554.167,537.5 554.5,537.5C 552.906,540.764 550.573,543.431 547.5,545.5C 547.5,545.167 547.5,544.833 547.5,544.5C 547.782,543.222 548.449,542.222 549.5,541.5C 550.167,541.5 550.5,541.167 550.5,540.5C 551.167,540.5 551.5,540.167 551.5,539.5C 552.167,539.5 552.5,539.167 552.5,538.5C 553.167,538.5 553.5,538.167 553.5,537.5 Z"/></g>
<g><path style="opacity:0.008" fill="#00fffe" d="M 546.5,545.5 C 546.833,545.5 547.167,545.5 547.5,545.5C 547.315,546.17 546.981,546.17 546.5,545.5 Z"/></g>
<g><path style="opacity:0.008" fill="#00fffe" d="M 545.5,546.5 C 545.833,546.5 546.167,546.5 546.5,546.5C 546.315,547.17 545.981,547.17 545.5,546.5 Z"/></g>
<g><path style="opacity:0.008" fill="#00fffe" d="M 544.5,547.5 C 544.833,547.5 545.167,547.5 545.5,547.5C 545.315,548.17 544.981,548.17 544.5,547.5 Z"/></g>
<g><path style="opacity:0.016" fill="#00bfff" d="M 535.5,555.5 C 535.833,555.5 536.167,555.5 536.5,555.5C 536.315,556.17 535.981,556.17 535.5,555.5 Z"/></g>
<g><path style="opacity:0.016" fill="#00bfff" d="M 534.5,556.5 C 534.833,556.5 535.167,556.5 535.5,556.5C 535.315,557.17 534.981,557.17 534.5,556.5 Z"/></g>
<g><path style="opacity:0.016" fill="#00bfff" d="M 533.5,557.5 C 533.833,557.5 534.167,557.5 534.5,557.5C 534.315,558.17 533.981,558.17 533.5,557.5 Z"/></g>
<g><path style="opacity:0.016" fill="#00bfff" d="M 532.5,558.5 C 532.833,558.5 533.167,558.5 533.5,558.5C 533.315,559.17 532.981,559.17 532.5,558.5 Z"/></g>
<g><path style="opacity:0.016" fill="#00bfbe" d="M 531.5,559.5 C 531.833,559.5 532.167,559.5 532.5,559.5C 532.315,560.17 531.981,560.17 531.5,559.5 Z"/></g>
<g><path style="opacity:0.012" fill="#00a9ff" d="M 530.5,560.5 C 530.833,560.5 531.167,560.5 531.5,560.5C 531.315,561.17 530.981,561.17 530.5,560.5 Z"/></g>
<g><path style="opacity:0.008" fill="#00fffe" d="M 529.5,561.5 C 529.833,561.5 530.167,561.5 530.5,561.5C 530.315,562.17 529.981,562.17 529.5,561.5 Z"/></g>
<g><path style="opacity:0.016" fill="#64b1ff" d="M 110.5,562.5 C 111.167,562.5 111.5,562.833 111.5,563.5C 110.503,564.713 109.503,564.546 108.5,563C 109.094,562.536 109.761,562.369 110.5,562.5 Z"/></g>
<g><path style="opacity:0.004" fill="#547885" d="M 527.5,562.5 C 528.167,562.5 528.833,562.5 529.5,562.5C 529.027,563.906 528.027,564.573 526.5,564.5C 526.5,564.167 526.5,563.833 526.5,563.5C 527.167,563.5 527.5,563.167 527.5,562.5 Z"/></g>
<g><path style="opacity:0.016" fill="#00bfff" d="M 525.5,564.5 C 525.833,564.5 526.167,564.5 526.5,564.5C 526.315,565.17 525.981,565.17 525.5,564.5 Z"/></g>
<g><path style="opacity:0.016" fill="#00bfff" d="M 524.5,565.5 C 524.833,565.5 525.167,565.5 525.5,565.5C 525.315,566.17 524.981,566.17 524.5,565.5 Z"/></g>
<g><path style="opacity:0.012" fill="#00fffe" d="M 523.5,566.5 C 523.833,566.5 524.167,566.5 524.5,566.5C 524.315,567.17 523.981,567.17 523.5,566.5 Z"/></g>
<g><path style="opacity:0.008" fill="#00fffe" d="M 522.5,567.5 C 522.833,567.5 523.167,567.5 523.5,567.5C 523.315,568.17 522.981,568.17 522.5,567.5 Z"/></g>
<g><path style="opacity:0.004" fill="#cdfffe" d="M 520.5,569.5 C 520.5,569.167 520.5,568.833 520.5,568.5C 521.167,568.5 521.833,568.5 522.5,568.5C 522.158,569.338 521.492,569.672 520.5,569.5 Z"/></g>
<g><path style="opacity:0.016" fill="#00bfff" d="M 519.5,569.5 C 519.833,569.5 520.167,569.5 520.5,569.5C 520.315,570.17 519.981,570.17 519.5,569.5 Z"/></g>
<g><path style="opacity:0.016" fill="#00bfbe" d="M 518.5,570.5 C 518.833,570.5 519.167,570.5 519.5,570.5C 519.315,571.17 518.981,571.17 518.5,570.5 Z"/></g>
<g><path style="opacity:0.008" fill="#00fffe" d="M 517.5,571.5 C 517.833,571.5 518.167,571.5 518.5,571.5C 518.315,572.17 517.981,572.17 517.5,571.5 Z"/></g>
<g><path style="opacity:0.004" fill="#cdfffe" d="M 515.5,573.5 C 515.5,573.167 515.5,572.833 515.5,572.5C 516.167,572.5 516.833,572.5 517.5,572.5C 517.158,573.338 516.492,573.672 515.5,573.5 Z"/></g>
<g><path style="opacity:0.016" fill="#00bfff" d="M 514.5,573.5 C 514.833,573.5 515.167,573.5 515.5,573.5C 515.315,574.17 514.981,574.17 514.5,573.5 Z"/></g>
<g><path style="opacity:0.012" fill="#00fffe" d="M 513.5,574.5 C 513.833,574.5 514.167,574.5 514.5,574.5C 514.315,575.17 513.981,575.17 513.5,574.5 Z"/></g>
<g><path style="opacity:0.008" fill="#00fffe" d="M 511.5,576.5 C 511.5,576.167 511.5,575.833 511.5,575.5C 512.167,575.5 512.833,575.5 513.5,575.5C 513.158,576.338 512.492,576.672 511.5,576.5 Z"/></g>
<g><path style="opacity:0.016" fill="#00bfbe" d="M 510.5,576.5 C 510.833,576.5 511.167,576.5 511.5,576.5C 511.315,577.17 510.981,577.17 510.5,576.5 Z"/></g>
<g><path style="opacity:0.012" fill="#00fffe" d="M 509.5,577.5 C 509.833,577.5 510.167,577.5 510.5,577.5C 510.315,578.17 509.981,578.17 509.5,577.5 Z"/></g>
<g><path style="opacity:0.008" fill="#00fffe" d="M 507.5,579.5 C 507.5,579.167 507.5,578.833 507.5,578.5C 508.167,578.5 508.833,578.5 509.5,578.5C 509.158,579.338 508.492,579.672 507.5,579.5 Z"/></g>
<g><path style="opacity:0.016" fill="#00bfff" d="M 506.5,579.5 C 506.833,579.5 507.167,579.5 507.5,579.5C 507.315,580.17 506.981,580.17 506.5,579.5 Z"/></g>
<g><path style="opacity:0.012" fill="#00fffe" d="M 505.5,580.5 C 505.833,580.5 506.167,580.5 506.5,580.5C 506.315,581.17 505.981,581.17 505.5,580.5 Z"/></g>
<g><path style="opacity:0.004" fill="#c8e1ff" d="M 503.5,582.5 C 503.5,582.167 503.5,581.833 503.5,581.5C 504.167,581.5 504.833,581.5 505.5,581.5C 505.158,582.338 504.492,582.672 503.5,582.5 Z"/></g>
<g><path style="opacity:0.016" fill="#00bfff" d="M 502.5,582.5 C 502.833,582.5 503.167,582.5 503.5,582.5C 503.315,583.17 502.981,583.17 502.5,582.5 Z"/></g>
<g><path style="opacity:0.008" fill="#00fffe" d="M 500.5,584.5 C 500.5,584.167 500.5,583.833 500.5,583.5C 501.167,583.5 501.833,583.5 502.5,583.5C 502.158,584.338 501.492,584.672 500.5,584.5 Z"/></g>
<g><path style="opacity:0.016" fill="#00bfff" d="M 499.5,584.5 C 499.833,584.5 500.167,584.5 500.5,584.5C 500.315,585.17 499.981,585.17 499.5,584.5 Z"/></g>
<g><path style="opacity:0.008" fill="#00fffe" d="M 498.5,585.5 C 498.833,585.5 499.167,585.5 499.5,585.5C 499.315,586.17 498.981,586.17 498.5,585.5 Z"/></g>
<g><path style="opacity:0.004" fill="#4f6dff" d="M 496.5,587.5 C 496.5,587.167 496.5,586.833 496.5,586.5C 497.167,586.5 497.833,586.5 498.5,586.5C 498.158,587.338 497.492,587.672 496.5,587.5 Z"/></g>
<g><path style="opacity:0.012" fill="#00a9ff" d="M 495.5,587.5 C 495.833,587.5 496.167,587.5 496.5,587.5C 496.315,588.17 495.981,588.17 495.5,587.5 Z"/></g>
<g><path style="opacity:0.004" fill="#1c3d4e" d="M 493.5,589.5 C 493.5,589.167 493.5,588.833 493.5,588.5C 494.167,588.5 494.833,588.5 495.5,588.5C 495.158,589.338 494.492,589.672 493.5,589.5 Z"/></g>
<g><path style="opacity:0.008" fill="#00fffe" d="M 492.5,589.5 C 492.833,589.5 493.167,589.5 493.5,589.5C 493.315,590.17 492.981,590.17 492.5,589.5 Z"/></g>
<g><path style="opacity:0.004" fill="#193d3d" d="M 490.5,591.5 C 490.5,591.167 490.5,590.833 490.5,590.5C 491.167,590.5 491.833,590.5 492.5,590.5C 492.158,591.338 491.492,591.672 490.5,591.5 Z"/></g>
<g><path style="opacity:0.008" fill="#00fffe" d="M 488.5,592.5 C 488.5,592.167 488.5,591.833 488.5,591.5C 489.167,591.5 489.833,591.5 490.5,591.5C 490.158,592.338 489.492,592.672 488.5,592.5 Z"/></g>
<g><path style="opacity:0.012" fill="#00fffe" d="M 487.5,592.5 C 487.833,592.5 488.167,592.5 488.5,592.5C 488.315,593.17 487.981,593.17 487.5,592.5 Z"/></g>
<g><path style="opacity:0.004" fill="#cdfffe" d="M 485.5,594.5 C 485.5,594.167 485.5,593.833 485.5,593.5C 486.167,593.5 486.833,593.5 487.5,593.5C 487.158,594.338 486.492,594.672 485.5,594.5 Z"/></g>
<g><path style="opacity:0.012" fill="#00fffe" d="M 484.5,594.5 C 484.833,594.5 485.167,594.5 485.5,594.5C 485.315,595.17 484.981,595.17 484.5,594.5 Z"/></g>
<g><path style="opacity:0.004" fill="#1c3d4e" d="M 482.5,596.5 C 482.5,596.167 482.5,595.833 482.5,595.5C 483.167,595.5 483.833,595.5 484.5,595.5C 484.158,596.338 483.492,596.672 482.5,596.5 Z"/></g>
<g><path style="opacity:0.004" fill="#cdfffe" d="M 480.5,597.5 C 480.5,597.167 480.5,596.833 480.5,596.5C 481.167,596.5 481.833,596.5 482.5,596.5C 482.158,597.338 481.492,597.672 480.5,597.5 Z"/></g>
<g><path style="opacity:0.012" fill="#00a9ff" d="M 479.5,597.5 C 479.833,597.5 480.167,597.5 480.5,597.5C 480.315,598.17 479.981,598.17 479.5,597.5 Z"/></g>
<g><path style="opacity:0.004" fill="#193d3d" d="M 477.5,599.5 C 477.5,599.167 477.5,598.833 477.5,598.5C 478.167,598.5 478.833,598.5 479.5,598.5C 479.158,599.338 478.492,599.672 477.5,599.5 Z"/></g>
<g><path style="opacity:0.004" fill="#cdfffe" d="M 475.5,600.5 C 475.5,600.167 475.5,599.833 475.5,599.5C 476.167,599.5 476.833,599.5 477.5,599.5C 477.158,600.338 476.492,600.672 475.5,600.5 Z"/></g>
<g><path style="opacity:0.008" fill="#00fffe" d="M 473.5,601.5 C 473.5,601.167 473.5,600.833 473.5,600.5C 474.167,600.5 474.833,600.5 475.5,600.5C 475.158,601.338 474.492,601.672 473.5,601.5 Z"/></g>
<g><path style="opacity:0.012" fill="#00fffe" d="M 165.5,601.5 C 164.833,602.167 164.833,602.167 165.5,601.5 Z"/></g>
<g><path style="opacity:0.012" fill="#91fffe" d="M 471.5,602.5 C 471.5,602.167 471.5,601.833 471.5,601.5C 472.167,601.5 472.833,601.5 473.5,601.5C 473.158,602.338 472.492,602.672 471.5,602.5 Z"/></g>
<g><path style="opacity:0.012" fill="#00fffe" d="M 470.5,602.5 C 470.833,602.5 471.167,602.5 471.5,602.5C 471.315,603.17 470.981,603.17 470.5,602.5 Z"/></g>
<g><path style="opacity:0.004" fill="#193d3d" d="M 468.5,604.5 C 468.5,604.167 468.5,603.833 468.5,603.5C 469.167,603.5 469.833,603.5 470.5,603.5C 470.158,604.338 469.492,604.672 468.5,604.5 Z"/></g>
<g><path style="opacity:0.004" fill="#c9e9ff" d="M 466.5,605.5 C 466.5,605.167 466.5,604.833 466.5,604.5C 467.167,604.5 467.833,604.5 468.5,604.5C 468.158,605.338 467.492,605.672 466.5,605.5 Z"/></g>
<g><path style="opacity:0.004" fill="#cdfffe" d="M 464.5,606.5 C 464.5,606.167 464.5,605.833 464.5,605.5C 465.167,605.5 465.833,605.5 466.5,605.5C 466.158,606.338 465.492,606.672 464.5,606.5 Z"/></g>
<g><path style="opacity:0.004" fill="#cdfffe" d="M 462.5,607.5 C 462.5,607.167 462.5,606.833 462.5,606.5C 463.167,606.5 463.833,606.5 464.5,606.5C 464.158,607.338 463.492,607.672 462.5,607.5 Z"/></g>
<g><path style="opacity:0.01" fill="#00fffe" d="M 460.5,608.5 C 460.5,608.167 460.5,607.833 460.5,607.5C 461.167,607.5 461.833,607.5 462.5,607.5C 462.158,608.338 461.492,608.672 460.5,608.5 Z"/></g>
<g><path style="opacity:0.01" fill="#00fffe" d="M 458.5,609.5 C 458.5,609.167 458.5,608.833 458.5,608.5C 459.167,608.5 459.833,608.5 460.5,608.5C 460.158,609.338 459.492,609.672 458.5,609.5 Z"/></g>
<g><path style="opacity:0.008" fill="#13e9ff" d="M 456.5,610.5 C 456.5,610.167 456.5,609.833 456.5,609.5C 457.167,609.5 457.833,609.5 458.5,609.5C 458.158,610.338 457.492,610.672 456.5,610.5 Z"/></g>
<g><path style="opacity:0.004" fill="#c9e9ff" d="M 454.5,611.5 C 454.5,611.167 454.5,610.833 454.5,610.5C 455.167,610.5 455.833,610.5 456.5,610.5C 456.158,611.338 455.492,611.672 454.5,611.5 Z"/></g>
<g><path style="opacity:0.004" fill="#c2eae9" d="M 452.5,612.5 C 452.5,612.167 452.5,611.833 452.5,611.5C 453.167,611.5 453.833,611.5 454.5,611.5C 454.158,612.338 453.492,612.672 452.5,612.5 Z"/></g>
<g><path style="opacity:0.012" fill="#4385ba" d="M 449.5,613.5 C 449.5,613.167 449.5,612.833 449.5,612.5C 450.5,612.5 451.5,612.5 452.5,612.5C 451.791,613.404 450.791,613.737 449.5,613.5 Z"/></g>
<g><path style="opacity:0.01" fill="#00fffe" d="M 447.5,614.5 C 447.5,614.167 447.5,613.833 447.5,613.5C 448.167,613.5 448.833,613.5 449.5,613.5C 449.158,614.338 448.492,614.672 447.5,614.5 Z"/></g>
<g><path style="opacity:0.01" fill="#00fffe" d="M 445.5,615.5 C 445.5,615.167 445.5,614.833 445.5,614.5C 446.167,614.5 446.833,614.5 447.5,614.5C 447.158,615.338 446.492,615.672 445.5,615.5 Z"/></g>
<g><path style="opacity:0.004" fill="#c9e9ff" d="M 443.5,616.5 C 443.5,616.167 443.5,615.833 443.5,615.5C 444.167,615.5 444.833,615.5 445.5,615.5C 445.158,616.338 444.492,616.672 443.5,616.5 Z"/></g>
<g><path style="opacity:0.01" fill="#22b8b8" d="M 440.5,617.5 C 440.5,617.167 440.5,616.833 440.5,616.5C 441.5,616.5 442.5,616.5 443.5,616.5C 442.791,617.404 441.791,617.737 440.5,617.5 Z"/></g>
<g><path style="opacity:0.008" fill="#13e9ff" d="M 438.5,618.5 C 438.5,618.167 438.5,617.833 438.5,617.5C 439.167,617.5 439.833,617.5 440.5,617.5C 440.158,618.338 439.492,618.672 438.5,618.5 Z"/></g>
<g><path style="opacity:0.012" fill="#8cc7ff" d="M 435.5,619.5 C 435.5,619.167 435.5,618.833 435.5,618.5C 436.5,618.5 437.5,618.5 438.5,618.5C 437.791,619.404 436.791,619.737 435.5,619.5 Z"/></g>
<g><path style="opacity:0.008" fill="#13e9ff" d="M 433.5,620.5 C 433.5,620.167 433.5,619.833 433.5,619.5C 434.167,619.5 434.833,619.5 435.5,619.5C 435.158,620.338 434.492,620.672 433.5,620.5 Z"/></g>
<g><path style="opacity:0.012" fill="#22b8b8" d="M 430.5,621.5 C 430.5,621.167 430.5,620.833 430.5,620.5C 431.5,620.5 432.5,620.5 433.5,620.5C 432.791,621.404 431.791,621.737 430.5,621.5 Z"/></g>
<g><path style="opacity:0.012" fill="#8cc7ff" d="M 427.5,622.5 C 427.5,622.167 427.5,621.833 427.5,621.5C 428.5,621.5 429.5,621.5 430.5,621.5C 429.791,622.404 428.791,622.737 427.5,622.5 Z"/></g>
<g><path style="opacity:0.008" fill="#13e9ff" d="M 425.5,623.5 C 425.5,623.167 425.5,622.833 425.5,622.5C 426.167,622.5 426.833,622.5 427.5,622.5C 427.158,623.338 426.492,623.672 425.5,623.5 Z"/></g>
<g><path style="opacity:0.012" fill="#1f81b8" d="M 422.5,624.5 C 422.5,624.167 422.5,623.833 422.5,623.5C 423.5,623.5 424.5,623.5 425.5,623.5C 424.791,624.404 423.791,624.737 422.5,624.5 Z"/></g>
<g><path style="opacity:0.012" fill="#49b8ff" d="M 419.5,625.5 C 419.5,625.167 419.5,624.833 419.5,624.5C 420.5,624.5 421.5,624.5 422.5,624.5C 421.791,625.404 420.791,625.737 419.5,625.5 Z"/></g>
<g><path style="opacity:0.012" fill="#49b8ff" d="M 416.5,626.5 C 416.5,626.167 416.5,625.833 416.5,625.5C 417.5,625.5 418.5,625.5 419.5,625.5C 418.791,626.404 417.791,626.737 416.5,626.5 Z"/></g>
<g><path style="opacity:0.012" fill="#25a9b8" d="M 413.5,627.5 C 413.5,627.167 413.5,626.833 413.5,626.5C 414.5,626.5 415.5,626.5 416.5,626.5C 415.791,627.404 414.791,627.737 413.5,627.5 Z"/></g>
<g><path style="opacity:0.016" fill="#62adc6" d="M 409.5,628.5 C 409.5,628.167 409.5,627.833 409.5,627.5C 410.833,627.5 412.167,627.5 413.5,627.5C 412.432,628.434 411.099,628.768 409.5,628.5 Z"/></g>
<g><path style="opacity:0.01" fill="#00fffe" d="M 406.5,629.5 C 406.5,629.167 406.5,628.833 406.5,628.5C 407.5,628.5 408.5,628.5 409.5,628.5C 408.791,629.404 407.791,629.737 406.5,629.5 Z"/></g>
<g><path style="opacity:0.016" fill="#79b9ff" d="M 402.5,630.5 C 402.5,630.167 402.5,629.833 402.5,629.5C 403.833,629.5 405.167,629.5 406.5,629.5C 405.432,630.434 404.099,630.768 402.5,630.5 Z"/></g>
<g><path style="opacity:0.012" fill="#7cefff" d="M 399.5,631.5 C 399.5,631.167 399.5,630.833 399.5,630.5C 400.5,630.5 401.5,630.5 402.5,630.5C 401.791,631.404 400.791,631.737 399.5,631.5 Z"/></g>
<g><path style="opacity:0.01" fill="#23bac6" d="M 395.5,632.5 C 395.5,632.167 395.5,631.833 395.5,631.5C 396.833,631.5 398.167,631.5 399.5,631.5C 398.432,632.434 397.099,632.768 395.5,632.5 Z"/></g>
<g><path style="opacity:0.01" fill="#25a6b2" d="M 390.5,633.5 C 390.5,633.167 390.5,632.833 390.5,632.5C 392.167,632.5 393.833,632.5 395.5,632.5C 394.081,633.451 392.415,633.784 390.5,633.5 Z"/></g>
<g><path style="opacity:0.016" fill="#6fe5ff" d="M 386.5,634.5 C 386.5,634.167 386.5,633.833 386.5,633.5C 387.833,633.5 389.167,633.5 390.5,633.5C 389.432,634.434 388.099,634.768 386.5,634.5 Z"/></g>
<g><path style="opacity:0.01" fill="#44cbff" d="M 381.5,635.5 C 381.5,635.167 381.5,634.833 381.5,634.5C 383.167,634.5 384.833,634.5 386.5,634.5C 385.081,635.451 383.415,635.784 381.5,635.5 Z"/></g>
<g><path style="opacity:0.008" fill="#3fb8f4" d="M 376.5,635.5 C 378.167,635.5 379.833,635.5 381.5,635.5C 379.833,636.833 378.167,636.833 376.5,635.5 Z"/></g>
</svg>
